<svg xmlns="http://www.w3.org/2000/svg" version="1.1" xmlns:xlink="http://www.w3.org/1999/xlink"  width="100%" height="100%" viewBox="0 0 1000 600"><rect width="1000" height="600" x="0" y="0" fill="#ffffff"/><g><circle r="166.66666666666666" cx="321.0610911051432" cy="343.28330934398497" fill="#161b21" transform="matrix(0.8096147016752989,0,0,0.8096147016752989,0,22.07277386483635)"/><path d="M213.93934642620403 268.49016632291944L298.632014256719 268.49016632291944L298.632014256719 270.61782580784507L231.61074048155922 270.61782580784507L231.61074048155922 334.44761035561635L293.72657711091813 334.44761035561635L293.72657711091813 336.5752698405421L231.61074048155922 336.5752698405421L231.61074048155922 415.29867078279324L303.30104479308375 415.29867078279324L303.30104479308375 417.426330267719L213.93934642620403 417.426330267719L213.93934642620403 268.49016632291944ZM389.26439814931837 418.2833042269252L389.26439814931837 418.2833042269252Q349.45943528549986 418.2833042269252 330.31049992116846 395.7360238519485L330.31049992116846 395.7360238519485Q323.51380989987797 387.639097478759 319.2584909300266 374.2230223932553Q315.0031719601752 360.83649813393106 315.0031719601752 341.6875627695997Q315.0031719601752 322.53862740526824 321.2679471102342 307.31995192281363Q327.56227308647277 292.1012764403589 338.40742629435795 283.79749428391267L338.40742629435795 283.79749428391267Q359.4771653603584 268.2833105396627 389.26439814931837 268.2833105396627L389.26439814931837 268.2833105396627Q397.77503608902117 268.2833105396627 405.84241163603116 269.6721993701003Q413.9393380092207 271.03153737435844 417.98780119581545 272.5386295095142L417.98780119581545 272.5386295095142L421.79985777297395 274.0161708184903L421.17929042320395 276.14383030341605Q406.69938559523735 270.41097002458844 389.26439814931837 270.41097002458844L389.26439814931837 270.41097002458844Q366.7171177743417 270.41097002458844 351.58709477042555 285.09773063581173L351.58709477042555 285.09773063581173Q340.1213742127704 295.9428838436969 335.4227928502261 317.01262290969737L335.4227928502261 317.01262290969737Q332.67456601553033 328.9216058600455 332.67456601553033 346.1497375227077Q332.67456601553033 363.37786918537006 337.55045233515176 377.9464264918753Q342.45588948095275 392.54453462456 348.7206646310118 399.54808042910713Q355.0149906072503 406.58117705983375 363.93934011346647 410.7182927249671Q372.86368961968265 414.88495921628 378.1828383319969 415.50552656605Q383.5019870443112 416.1556447419995 391.0669985462693 416.1556447419995Q398.63201004822736 416.1556447419995 408.20647773039303 414.64855260684374Q417.7809454125587 413.1710112978676 422.6568317321802 411.9003257721481L422.6568317321802 411.9003257721481L427.56226887798107 410.39323363699236L428.18283622775107 412.5208931219181Q412.0185343075516 418.2833042269252 389.26439814931837 418.2833042269252Z " fill="#f4a950" transform="matrix(0.8096147016752989,0,0,0.8096147016752989,0,22.07277386483635)"/><path d="M571.0610963036472 269.1365863231938L655.3882841930533 269.1365863231938L655.3882841930533 271.2550641766611L588.6562318088338 271.2550641766611L588.6562318088338 334.80939978067966L650.5040158086704 334.80939978067966L650.5040158086704 336.92787763414697L588.6562318088338 336.92787763414697L588.6562318088338 415.31155821243647L660.0371661492732 415.31155821243647L660.0371661492732 417.4300360659038L571.0610963036472 417.4300360659038L571.0610963036472 269.1365863231938ZM745.6295560900556 418.2833118679947L745.6295560900556 418.2833118679947Q705.9963662481051 418.2833118679947 686.9300655668997 395.83333128194556L686.9300655668997 395.83333128194556Q680.1627057572124 387.77134611736176 675.9257500502779 374.4131663191098Q671.6887943433433 361.0844098243781 671.6887943433433 342.0181091431725Q671.6887943433433 322.95180846196695 677.9265346896636 307.79880714897183Q684.1936983395043 292.6458058359766 694.9920507314835 284.3778575467501L694.9920507314835 284.3778575467501Q715.9708661415136 268.9306231985512 745.6295560900556 268.9306231985512L745.6295560900556 268.9306231985512Q754.1034675039248 268.9306231985512 762.1360293649882 270.313518464009Q770.1980145295721 271.66699042594644 774.229007111864 273.1675789054857L774.229007111864 273.1675789054857L778.0246132659929 274.6387440815047L777.4067238920649 276.757221934972Q762.9893051670792 271.04910105201844 745.6295560900556 271.04910105201844L745.6295560900556 271.04910105201844Q723.1795755040065 271.04910105201844 708.1148441015724 285.6724829016468L708.1148441015724 285.6724829016468Q696.6986023356654 296.4708352936259 692.0202970759252 317.44965070365606L692.0202970759252 317.44965070365606Q689.28392984853 329.30724202236877 689.28392984853 346.46102797474975Q689.28392984853 363.6148139271306 694.1387749293924 378.12050256267753Q699.0230433137754 392.6556145017447 705.2607836600956 399.62893743607447Q711.5279473099364 406.6316836739247 720.4137849730909 410.7509461667777Q729.2996226362453 414.89963196315114 734.5958172699135 415.5175213370792Q739.8920119035818 416.1648340145275 747.4243776047988 416.1648340145275Q754.9567433060157 416.1648340145275 764.4898936466185 414.66424553498814Q774.0230439872213 413.19308035896915 778.8778890680838 411.9278783075929L778.8778890680838 411.9278783075929L783.7621574524668 410.42728982805363L784.3800468263947 412.54576768152083Q768.2854998007474 418.2833118679947 745.6295560900556 418.2833118679947ZM791.7947193135302 346.8729542240351L791.7947193135302 346.8729542240351Q791.7947193135302 308.3284266123386 810.566786959532 288.3205802184809Q829.3094313020134 268.28331052110286 858.7621581259127 268.28331052110286Q888.1854616462916 268.28331052110286 905.6629039373969 285.6724829016468Q923.1403462285019 303.0322319786703 923.1403462285019 341.1648333410815Q923.1403462285019 379.2974347034926 904.5153951001021 398.77566163398353Q885.8610206681818 418.2833118679947 854.7311655436209 418.2833118679947L854.7311655436209 418.2833118679947Q827.808842822474 418.2833118679947 810.6550568700932 402.80665421627543L810.6550568700932 402.80665421627543Q801.7692192069387 394.774092355212 796.7966809119947 380.47436684430784Q791.7947193135302 366.17464133340366 791.7947193135302 346.8729542240351ZM858.1148454484644 270.4017883745701Q836.7241037891489 270.4017883745701 823.0422676521727 289.46808905577564Q809.3898548187169 308.5343897369812 809.3898548187169 345.4017890480161Q809.3898548187169 382.2691883590509 822.3066850641633 399.21701118678925Q835.2235153096095 416.1648340145275 856.7319501830066 416.1648340145275Q878.2403850564036 416.1648340145275 891.8927978898595 396.9808401192404Q905.5746340268357 377.82626952747364 905.5746340268357 341.28252655516303Q905.5746340268357 304.7387835828524 892.5401105673078 287.55557432695105Q879.5055871077799 270.4017883745701 858.1148454484644 270.4017883745701ZM958.0952308107122 300.2664414477548L943.9131985138894 417.4300360659038L941.1474079829738 417.4300360659038L959.5958192902514 269.1365863231938L966.5691422245812 269.1365863231938L1011.0571771473943 406.190334121119L1055.3392489455646 269.1365863231938L1062.3419951834148 269.1365863231938L1080.760983187172 417.4300360659038L1063.1952709855059 417.4300360659038L1048.5718891358774 298.7952762717358L1010.2333246488237 417.4300360659038L996.8751448505716 417.4300360659038L958.0952308107122 300.2664414477548Z " fill="#161b21" transform="matrix(0.8096147016752989,0,0,0.8096147016752989,0,22.07277386483635)"/></g></svg>